{
  "accessors": [
    {
      "bufferView": 0,
      "componentType": 5125,
      "count": 648,
      "type": "SCALAR"
    },
    {
      "bufferView": 1,
      "componentType": 5126,
      "count": 192,
      "max": [
        0.923265755176544,
        0.0551488697528839,
        0.497755736112595
      ],
      "min": [
        -0.923265755176544,
        -0.115408651530743,
        -0.422736376523972
      ],
      "type": "VEC3"
    },
    {
      "bufferView": 2,
      "componentType": 5126,
      "count": 192,
      "type": "VEC3"
    },
    {
      "bufferView": 3,
      "componentType": 5126,
      "count": 192,
      "type": "VEC2"
    },
    {
      "bufferView": 4,
      "componentType": 5125,
      "count": 5208,
      "type": "SCALAR"
    },
    {
      "bufferView": 5,
      "componentType": 5126,
      "count": 1267,
      "max": [
        1.00000011920929,
        0.248006626963615,
        0.499470680952072
      ],
      "min": [
        -1.0,
        -0.248006626963615,
        -0.499470680952072
      ],
      "type": "VEC3"
    },
    {
      "bufferView": 6,
      "componentType": 5126,
      "count": 1267,
      "type": "VEC3"
    },
    {
      "bufferView": 7,
      "componentType": 5126,
      "count": 1267,
      "type": "VEC2"
    }
  ],
  "asset": {
    "generator": "Substance Painter 2018.2.3",
    "version": "2.0"
  },
  "bufferViews": [
    {
      "buffer": 0,
      "byteLength": 2592,
      "target": 34963
    },
    {
      "buffer": 0,
      "byteLength": 2304,
      "byteOffset": 2592,
      "target": 34962
    },
    {
      "buffer": 0,
      "byteLength": 2304,
      "byteOffset": 4896,
      "target": 34962
    },
    {
      "buffer": 0,
      "byteLength": 1536,
      "byteOffset": 7200,
      "target": 34962
    },
    {
      "buffer": 0,
      "byteLength": 20832,
      "byteOffset": 8736,
      "target": 34963
    },
    {
      "buffer": 0,
      "byteLength": 15204,
      "byteOffset": 29568,
      "target": 34962
    },
    {
      "buffer": 0,
      "byteLength": 15204,
      "byteOffset": 44772,
      "target": 34962
    },
    {
      "buffer": 0,
      "byteLength": 10136,
      "byteOffset": 59976,
      "target": 34962
    }
  ],
  "buffers": [
    {
      "byteLength": 70112,
      "uri": "substance _file.bin"
    }
  ],
  "images": [
    {
      "uri": "cusion_baseColor.png"
    },
    {
      "uri": "cusion_occlusionRoughnessMetallic.png"
    },
    {
      "uri": "cusion_normal.png"
    },
    {
      "uri": "wood_baseColor.png"
    },
    {
      "uri": "wood_occlusionRoughnessMetallic.png"
    },
    {
      "uri": "wood_normal.png"
    }
  ],
  "materials": [
    {
      "alphaMode": "OPAQUE",
      "name": "cusion",
      "normalTexture": {
        "index": 2
      },
      "occlusionTexture": {
        "index": 1
      },
      "pbrMetallicRoughness": {
        "baseColorTexture": {
          "index": 0
        },
        "metallicRoughnessTexture": {
          "index": 1
        }
      }
    },
    {
      "alphaMode": "OPAQUE",
      "name": "wood",
      "normalTexture": {
        "index": 5
      },
      "occlusionTexture": {
        "index": 4
      },
      "pbrMetallicRoughness": {
        "baseColorTexture": {
          "index": 3
        },
        "metallicRoughnessTexture": {
          "index": 4
        }
      }
    }
  ],
  "meshes": [
    {
      "name": "sofa_Low_Poly",
      "primitives": [
        {
          "attributes": {
            "NORMAL": 2,
            "POSITION": 1,
            "TEXCOORD_0": 3
          },
          "indices": 0,
          "material": 0,
          "mode": 4
        }
      ]
    },
    {
      "name": "sofa_Low_Poly",
      "primitives": [
        {
          "attributes": {
            "NORMAL": 6,
            "POSITION": 5,
            "TEXCOORD_0": 7
          },
          "indices": 4,
          "material": 1,
          "mode": 4
        }
      ]
    }
  ],
  "nodes": [
    {
      "children": [
        1
      ],
      "name": "sofa_Low_Poly.obj",
      "scale": [
        10.6497859954834,
        10.6497859954834,
        10.6497859954834
      ],
      "translation": [
        -0.0218982696533203,
        2.65674042701721,
        0.0
      ]
    },
    {
      "children": [
        2,
        3
      ],
      "name": "g sofa_Low_Poly"
    },
    {
      "mesh": 0,
      "name": "sofa_Low_Poly"
    },
    {
      "mesh": 1,
      "name": "sofa_Low_Poly"
    }
  ],
  "samplers": [
    {
      "magFilter": 9729,
      "minFilter": 9985,
      "wrapS": 10497,
      "wrapT": 10497
    }
  ],
  "scene": 0,
  "scenes": [
    {
      "name": "Scene",
      "nodes": [
        0
      ]
    }
  ],
  "textures": [
    {
      "sampler": 0,
      "source": 0
    },
    {
      "sampler": 0,
      "source": 1
    },
    {
      "sampler": 0,
      "source": 2
    },
    {
      "sampler": 0,
      "source": 3
    },
    {
      "sampler": 0,
      "source": 4
    },
    {
      "sampler": 0,
      "source": 5
    }
  ]
}