{"accessors":[{"bufferView":0,"componentType":5123,"count":3552,"max":[1061],"min":[0],"type":"SCALAR"},{"bufferView":1,"componentType":5126,"count":1062,"max":[0.7874009609222412,0.787401556968689,11.811023712158203],"min":[-0.7874009609222412,-0.787401556968689,-11.811023712158203],"type":"VEC3"},{"bufferView":2,"componentType":5126,"count":1062,"max":[1.0,1.0,1.0],"min":[-1.0,-1.0,-1.0],"type":"VEC3"},{"bufferView":3,"componentType":5126,"count":1062,"max":[60.0,7.283535957336426],"min":[-60.0,-5.283286094665527],"type":"VEC2"},{"bufferView":4,"componentType":5123,"count":1284,"max":[457],"min":[0],"type":"SCALAR"},{"bufferView":5,"componentType":5126,"count":458,"max":[1.574803113937378,0.15748031437397003,1.5703996419906616],"min":[-1.574803113937378,-6.693080707449294e-16,-1.5703996419906616],"type":"VEC3"},{"bufferView":6,"componentType":5126,"count":458,"max":[1.0,1.0,0.9972038269042969],"min":[-1.0,-1.0,-1.0],"type":"VEC3"},{"bufferView":7,"componentType":5126,"count":458,"max":[4.0,13.566370964050293],"min":[-4.0,-11.566370964050293],"type":"VEC2"},{"bufferView":8,"componentType":5123,"count":1284,"max":[457],"min":[0],"type":"SCALAR"},{"bufferView":9,"componentType":5126,"count":458,"max":[1.574803113937378,0.15748031437397003,1.5703996419906616],"min":[-1.574803113937378,-6.693080707449294e-16,-1.5703996419906616],"type":"VEC3"},{"bufferView":10,"componentType":5126,"count":458,"max":[1.0,1.0,0.9972038269042969],"min":[-1.0,-1.0,-1.0],"type":"VEC3"},{"bufferView":11,"componentType":5126,"count":458,"max":[4.0,13.566370964050293],"min":[-4.0,-11.566370964050293],"type":"VEC2"},{"bufferView":12,"componentType":5123,"count":768,"max":[265],"min":[0],"type":"SCALAR"},{"bufferView":13,"componentType":5126,"count":266,"max":[0.31460389494895935,0.3149605989456177,1.6791557429446727e-14],"min":[-0.31460389494895935,-0.3135344386100769,-1.1811022758483887],"type":"VEC3"},{"bufferView":14,"componentType":5126,"count":266,"max":[0.9988673329353333,1.0,1.0],"min":[-0.9988673329353333,-0.9954718947410583,-1.0],"type":"VEC3"},{"bufferView":15,"componentType":5126,"count":266,"max":[0.75,3.5132741928100586],"min":[-2.950000047683716,-1.5132741928100586],"type":"VEC2"},{"bufferView":16,"componentType":5123,"count":768,"max":[259],"min":[0],"type":"SCALAR"},{"bufferView":17,"componentType":5126,"count":260,"max":[0.5905514359474182,0.3405512869358063,0.3390985429286957],"min":[-0.5905514359474182,-0.3405512869358063,-0.3390985429286957],"type":"VEC3"},{"bufferView":18,"componentType":5126,"count":260,"max":[1.0,1.0,0.9957341551780701],"min":[-1.0,-1.0,-0.9957341551780701],"type":"VEC3"},{"bufferView":19,"componentType":5126,"count":260,"max":[3.0,3.717477560043335],"min":[-3.0,-1.717477560043335],"type":"VEC2"},{"bufferView":20,"componentType":5123,"count":2472,"max":[569],"min":[0],"type":"SCALAR"},{"bufferView":21,"componentType":5126,"count":570,"max":[1.768662929534912,0.8067078590393066,2.775211811065674],"min":[-0.19385980069637299,-0.19685035943984985,-3.34645676612854],"type":"VEC3"},{"bufferView":22,"componentType":5126,"count":570,"max":[0.9848077297210693,1.0,1.0],"min":[-0.9848077297210693,-1.0,-1.0],"type":"VEC3"},{"bufferView":23,"componentType":5126,"count":570,"max":[1.7453292608261108,5.71238899230957],"min":[-11.0,-6.8539814949035645],"type":"VEC2"},{"bufferView":24,"componentType":5123,"count":5640,"max":[1808],"min":[0],"type":"SCALAR"},{"bufferView":25,"componentType":5126,"count":1809,"max":[12.902836799621582,0.688129723072052,0.6830707788467407],"min":[-12.795275688171387,-0.688129723072052,-0.6830707788467407],"type":"VEC3"},{"bufferView":26,"componentType":5126,"count":1809,"max":[1.0,1.0,1.0],"min":[-1.0,-1.0,-1.0],"type":"VEC3"},{"bufferView":27,"componentType":5126,"count":1809,"max":[65.0,6.786606311798096],"min":[-65.0,-4.786606311798096],"type":"VEC2"},{"bufferView":28,"componentType":5121,"count":312,"max":[111],"min":[0],"type":"SCALAR"},{"bufferView":29,"componentType":5126,"count":112,"max":[0.3101756274700165,0.31496062874794006,2.3373819122340846e-15],"min":[-0.3101756274700165,-0.31496062874794006,-6.889763355255127],"type":"VEC3"},{"bufferView":30,"componentType":5126,"count":112,"max":[0.6963642239570618,0.7071067690849304,1.0],"min":[-0.6963642239570618,-0.7071067690849304,-1.0],"type":"VEC3"},{"bufferView":31,"componentType":5126,"count":112,"max":[0.75,3.434734344482422],"min":[-0.75,-1.4347343444824219],"type":"VEC2"},{"bufferView":32,"componentType":5121,"count":108,"max":[37],"min":[0],"type":"SCALAR"},{"bufferView":33,"componentType":5126,"count":38,"max":[0.3101756274700165,0.31496062874794006,-0.019685037434101105],"min":[-0.3101756274700165,-0.31496062874794006,-6.870078086853027],"type":"VEC3"},{"bufferView":34,"componentType":5126,"count":38,"max":[0.9848077297210693,1.0,6.981671608842412e-15],"min":[-0.9848077297210693,-1.0,-6.981671608842412e-15],"type":"VEC3"},{"bufferView":35,"componentType":5126,"count":38,"max":[-0.05000000074505806,3.5132741928100586],"min":[-17.450000762939453,-1.5132741928100586],"type":"VEC2"},{"bufferView":36,"componentType":5123,"count":1248,"max":[471],"min":[0],"type":"SCALAR"},{"bufferView":37,"componentType":5126,"count":472,"max":[2.143641710281372,1.771653413772583,2.0567801408961743e-14],"min":[-2.143641710281372,-0.5905511379241943,-1.2517272233963013],"type":"VEC3"},{"bufferView":38,"componentType":5126,"count":472,"max":[1.0,1.0,1.0],"min":[-1.0,-1.0,-1.0],"type":"VEC3"},{"bufferView":39,"componentType":5126,"count":472,"max":[4.5,8.853981018066406],"min":[-4.5,-6.8539814949035645],"type":"VEC2"},{"bufferView":40,"componentType":5123,"count":1044,"max":[353],"min":[0],"type":"SCALAR"},{"bufferView":41,"componentType":5126,"count":354,"max":[0.5708661079406738,0.5708661079406738,3.11620196313811e-09],"min":[-0.5708661079406738,-0.5708661079406738,-0.7874014973640442],"type":"VEC3"},{"bufferView":42,"componentType":5126,"count":354,"max":[1.0,1.0,1.0],"min":[-1.0,-1.0,-1.0],"type":"VEC3"},{"bufferView":43,"componentType":5126,"count":354,"max":[1.4500000476837158,5.555309295654297],"min":[-2.0,-3.555309295654297],"type":"VEC2"},{"bufferView":44,"componentType":5121,"count":180,"max":[61],"min":[0],"type":"SCALAR"},{"bufferView":45,"componentType":5126,"count":62,"max":[0.31323522329330444,0.3149605989456177,-0.03937007486820221],"min":[-0.31323522329330444,-0.3149605989456177,-0.7480314373970032],"type":"VEC3"},{"bufferView":46,"componentType":5126,"count":62,"max":[0.9945219159126282,1.0,4.860598590283871e-09],"min":[-0.9945219159126282,-1.0,-4.860598590283871e-09],"type":"VEC3"},{"bufferView":47,"componentType":5126,"count":62,"max":[1.899999976158142,3.5132741928100586],"min":[0.10000000149011612,-1.5132741928100586],"type":"VEC2"}],"asset":{"generator":"Soft8Soft Verge3D for 3ds Max plug-in","version":"2.0"},"bufferViews":[{"buffer":0,"byteLength":7104,"byteOffset":0,"target":34963},{"buffer":0,"byteLength":12744,"byteOffset":7104,"target":34962},{"buffer":0,"byteLength":12744,"byteOffset":19848,"target":34962},{"buffer":0,"byteLength":8496,"byteOffset":32592,"target":34962},{"buffer":0,"byteLength":2568,"byteOffset":41088,"target":34963},{"buffer":0,"byteLength":5496,"byteOffset":43656,"target":34962},{"buffer":0,"byteLength":5496,"byteOffset":49152,"target":34962},{"buffer":0,"byteLength":3664,"byteOffset":54648,"target":34962},{"buffer":0,"byteLength":2568,"byteOffset":58312,"target":34963},{"buffer":0,"byteLength":5496,"byteOffset":60880,"target":34962},{"buffer":0,"byteLength":5496,"byteOffset":66376,"target":34962},{"buffer":0,"byteLength":3664,"byteOffset":71872,"target":34962},{"buffer":0,"byteLength":1536,"byteOffset":75536,"target":34963},{"buffer":0,"byteLength":3192,"byteOffset":77072,"target":34962},{"buffer":0,"byteLength":3192,"byteOffset":80264,"target":34962},{"buffer":0,"byteLength":2128,"byteOffset":83456,"target":34962},{"buffer":0,"byteLength":1536,"byteOffset":85584,"target":34963},{"buffer":0,"byteLength":3120,"byteOffset":87120,"target":34962},{"buffer":0,"byteLength":3120,"byteOffset":90240,"target":34962},{"buffer":0,"byteLength":2080,"byteOffset":93360,"target":34962},{"buffer":0,"byteLength":4944,"byteOffset":95440,"target":34963},{"buffer":0,"byteLength":6840,"byteOffset":100384,"target":34962},{"buffer":0,"byteLength":6840,"byteOffset":107224,"target":34962},{"buffer":0,"byteLength":4560,"byteOffset":114064,"target":34962},{"buffer":0,"byteLength":11280,"byteOffset":118624,"target":34963},{"buffer":0,"byteLength":21708,"byteOffset":129904,"target":34962},{"buffer":0,"byteLength":21708,"byteOffset":151612,"target":34962},{"buffer":0,"byteLength":14472,"byteOffset":173320,"target":34962},{"buffer":0,"byteLength":312,"byteOffset":187792,"target":34963},{"buffer":0,"byteLength":1344,"byteOffset":188104,"target":34962},{"buffer":0,"byteLength":1344,"byteOffset":189448,"target":34962},{"buffer":0,"byteLength":896,"byteOffset":190792,"target":34962},{"buffer":0,"byteLength":108,"byteOffset":191688,"target":34963},{"buffer":0,"byteLength":456,"byteOffset":191796,"target":34962},{"buffer":0,"byteLength":456,"byteOffset":192252,"target":34962},{"buffer":0,"byteLength":304,"byteOffset":192708,"target":34962},{"buffer":0,"byteLength":2496,"byteOffset":193012,"target":34963},{"buffer":0,"byteLength":5664,"byteOffset":195508,"target":34962},{"buffer":0,"byteLength":5664,"byteOffset":201172,"target":34962},{"buffer":0,"byteLength":3776,"byteOffset":206836,"target":34962},{"buffer":0,"byteLength":2088,"byteOffset":210612,"target":34963},{"buffer":0,"byteLength":4248,"byteOffset":212700,"target":34962},{"buffer":0,"byteLength":4248,"byteOffset":216948,"target":34962},{"buffer":0,"byteLength":2832,"byteOffset":221196,"target":34962},{"buffer":0,"byteLength":180,"byteOffset":224028,"target":34963},{"buffer":0,"byteLength":744,"byteOffset":224208,"target":34962},{"buffer":0,"byteLength":744,"byteOffset":224952,"target":34962},{"buffer":0,"byteLength":496,"byteOffset":225696,"target":34962}],"buffers":[{"byteLength":226192,"uri":"model2.bin"}],"cameras":[{"extensions":{"S8S_v3d_camera_data":{"controls":"ORBIT","enablePan":true,"moveSpeed":1,"orbitMaxDistance":10000,"orbitMaxPolarAngle":3.141592653589793,"orbitMinDistance":0,"orbitMinPolarAngle":0,"orbitTarget":[0,0,0],"rotateSpeed":1,"viewportFitInitialAspect":1.7777777777777777,"viewportFitType":"VERTICAL"}},"name":"__DEFAULT__","perspective":{"aspectRatio":1.7777777777777777,"yfov":0.4578223347944152,"zfar":1000,"znear":0.1},"type":"perspective"}],"extensions":{"S8S_v3d_data":{"lights":[{"color":[1,1,1],"intensity":1,"name":"__DEFAULT__","profile":"max","type":"point"},{"color":[0.0,0.0,0.0],"intensity":1,"name":"__AMBIENT__","profile":"max","type":"ambient"}]}},"extensionsUsed":["S8S_v3d_material_data","S8S_v3d_camera_data","S8S_v3d_data","S8S_v3d_node_data","S8S_v3d_scene_data"],"materials":[{"doubleSided":false,"extensions":{"S8S_v3d_material_data":{"nodeGraph":{"edges":[{"fromNode":1,"fromOutput":0,"toInput":0,"toNode":0},{"fromNode":1,"fromOutput":1,"toInput":1,"toNode":0}],"nodes":[{"inputs":[[1,1,1,1]],"is_active_output":true,"name":"MaxOutput","outputs":[],"type":"OUTPUT_MX"},{"brdfCurve":5.0,"brdfHigh":1.0,"brdfLow":0.05000000074505806,"brdfMode":true,"emitLuminance":1500.0,"inputFactors":[0,0,0,0,0,0,0,0,0,0,0,0,0,0,0,0,0,0,0,0,0,0,0,0,0],"inputs":[1.0,[0.7764705882352941,0.7568627450980392,0.7372549019607844,1.0],1.0,[0.5435293758616728,0.5298039455039828,0.516078395469516,1.0],0.0,0.0,0.0,1.0,0.0,0.0,[1.0,1.0,1.0,1.0],0.0,1.5199999809265137,0.0,[1.0,1.0,1.0,1.0],1.0,1.0,[0.0,0.0,0.0,1.0],0.0,[1.0,1.0,1.0,1.0],0.0,[0,0,0],[0,0,0],0,0],"is_active_output":false,"name":"Material #25","outputs":[[0,0,0,0]],"roughnessInv":true,"thinWalled":true,"transRoughnessInv":false,"transRoughnessLock":true,"type":"PHYSICAL_MX"}]},"profile":"max"}},"name":"Material #25"},{"doubleSided":false,"extensions":{"S8S_v3d_material_data":{"nodeGraph":{"edges":[{"fromNode":1,"fromOutput":0,"toInput":0,"toNode":0},{"fromNode":1,"fromOutput":1,"toInput":1,"toNode":0}],"nodes":[{"inputs":[[1,1,1,1]],"is_active_output":true,"name":"MaxOutput","outputs":[],"type":"OUTPUT_MX"},{"brdfCurve":5.0,"brdfHigh":1.0,"brdfLow":0.05000000074505806,"brdfMode":true,"emitLuminance":1500.0,"inputFactors":[0,0,0,0,0,0,0,0,0,0,0,0,0,0,0,0,0,0,0,0,0,0,0,0,0],"inputs":[1.0,[1.0,1.0,1.0,1.0],1.0,[0.5,0.5,0.5,1.0],0.0,0.0,0.0,1.0,0.0,0.0,[1.0,1.0,1.0,1.0],0.0,1.5199999809265137,0.0,[1.0,1.0,1.0,1.0],1.0,1.0,[0.0,0.0,0.0,1.0],0.0,[1.0,1.0,1.0,1.0],0.0,[0,0,0],[0,0,0],0,0],"is_active_output":false,"name":"Material #28","outputs":[[0,0,0,0]],"roughnessInv":true,"thinWalled":true,"transRoughnessInv":false,"transRoughnessLock":true,"type":"PHYSICAL_MX"}]},"profile":"max"}},"name":"Material #28"},{"doubleSided":false,"extensions":{"S8S_v3d_material_data":{"nodeGraph":{"edges":[{"fromNode":1,"fromOutput":0,"toInput":0,"toNode":0},{"fromNode":1,"fromOutput":1,"toInput":1,"toNode":0}],"nodes":[{"inputs":[[1,1,1,1]],"is_active_output":true,"name":"MaxOutput","outputs":[],"type":"OUTPUT_MX"},{"brdfCurve":5.0,"brdfHigh":1.0,"brdfLow":0.05000000074505806,"brdfMode":true,"emitLuminance":1500.0,"inputFactors":[0,0,0,0,0,0,0,0,0,0,0,0,0,0,0,0,0,0,0,0,0,0,0,0,0],"inputs":[1.0,[0.7764705882352941,0.7568627450980392,0.7372549019607844,1.0],1.0,[0.5435293758616728,0.5298039455039828,0.516078395469516,1.0],0.0,0.0,0.0,1.0,0.0,0.0,[1.0,1.0,1.0,1.0],0.0,1.5199999809265137,0.0,[1.0,1.0,1.0,1.0],1.0,1.0,[0.0,0.0,0.0,1.0],0.0,[1.0,1.0,1.0,1.0],0.0,[0,0,0],[0,0,0],0,0],"is_active_output":false,"name":"Material #29","outputs":[[0,0,0,0]],"roughnessInv":true,"thinWalled":true,"transRoughnessInv":false,"transRoughnessLock":true,"type":"PHYSICAL_MX"}]},"profile":"max"}},"name":"Material #29"},{"extensions":{"S8S_v3d_material_data":{"nodeGraph":{"edges":[],"nodes":[{"inputs":[[0.0,0.0,0.0,1]],"is_active_output":true,"name":"World Output","outputs":[],"type":"OUTPUT_MX"}]},"profile":"max"}},"name":"Verge3D_Environment"}],"meshes":[{"name":"CirPattern1","primitives":[{"attributes":{"NORMAL":2,"POSITION":1,"TEXCOORD_0":3},"indices":0,"material":0,"mode":4}]},{"name":"Fillet1","primitives":[{"attributes":{"NORMAL":6,"POSITION":5,"TEXCOORD_0":7},"indices":4,"material":0,"mode":4}]},{"name":"Convert-Solid1","primitives":[{"attributes":{"NORMAL":10,"POSITION":9,"TEXCOORD_0":11},"indices":8,"material":0,"mode":4}]},{"name":"Chamfer1","primitives":[{"attributes":{"NORMAL":14,"POSITION":13,"TEXCOORD_0":15},"indices":12,"material":0,"mode":4}]},{"name":"Structural Member1","primitives":[{"attributes":{"NORMAL":18,"POSITION":17,"TEXCOORD_0":19},"indices":16,"material":0,"mode":4}]},{"name":"Chamfer1","primitives":[{"attributes":{"NORMAL":22,"POSITION":21,"TEXCOORD_0":23},"indices":20,"material":0,"mode":4}]},{"name":"LPattern1","primitives":[{"attributes":{"NORMAL":26,"POSITION":25,"TEXCOORD_0":27},"indices":24,"material":0,"mode":4}]},{"name":"Chamfer1","primitives":[{"attributes":{"NORMAL":30,"POSITION":29,"TEXCOORD_0":31},"indices":28,"material":0,"mode":4},{"attributes":{"NORMAL":34,"POSITION":33,"TEXCOORD_0":35},"indices":32,"material":1,"mode":4}]},{"name":"Convert-Solid1","primitives":[{"attributes":{"NORMAL":38,"POSITION":37,"TEXCOORD_0":39},"indices":36,"material":2,"mode":4}]},{"name":"Chamfer1","primitives":[{"attributes":{"NORMAL":42,"POSITION":41,"TEXCOORD_0":43},"indices":40,"material":2,"mode":4},{"attributes":{"NORMAL":46,"POSITION":45,"TEXCOORD_0":47},"indices":44,"material":1,"mode":4}]}],"nodes":[{"children":[1],"extensions":{"S8S_v3d_node_data":{"hidden":false}},"name":"GP0005","translation":[-9.277908325195312,0.0,14.361709594726562]},{"children":[2,15],"extensions":{"S8S_v3d_node_data":{"groupNames":["GP0005"],"hidden":false}},"name":"GP0005"},{"children":[3,5,11,13],"extensions":{"S8S_v3d_node_data":{"groupNames":["GP0005","GP0005"],"hidden":false}},"name":"PS000472","rotation":[2.837897454810445e-07,0.7071067690849304,-0.7071067690849304,2.837897170593351e-07],"translation":[-0.43811798095703125,3.285727024078369,-11.124662399291992]},{"children":[4],"extensions":{"S8S_v3d_node_data":{"groupNames":["PS000472","GP0005","GP0005"],"hidden":false}},"name":"PP001678","rotation":[2.043494937338259e-14,0.7071067690849304,-2.043494937338259e-14,0.7071067690849304],"translation":[-7.306888103485107,0.32453274726867676,-0.694704532623291]},{"extensions":{"S8S_v3d_node_data":{"frustumCulling":true,"groupNames":["PP001678","PS000472","GP0005","GP0005"],"hidden":false,"renderOrder":0,"useCastShadows":true,"useShadows":true}},"mesh":0,"name":"CirPattern1","rotation":[4.776713662911763e-16,2.1855694143368964e-08,-3.1319519742152897e-23,1.0]},{"children":[6,9],"extensions":{"S8S_v3d_node_data":{"groupNames":["PS000472","GP0005","GP0005"],"hidden":false}},"name":"PS000475","rotation":[0.5,-0.5,-0.5000000596046448,-0.4999999403953552],"translation":[-19.11791229248047,0.32453274726867676,-0.694704532623291]},{"children":[7,8],"extensions":{"S8S_v3d_node_data":{"groupNames":["PS000475","PS000472","GP0005","GP0005"],"hidden":false}},"name":"PP001669"},{"extensions":{"S8S_v3d_node_data":{"frustumCulling":true,"groupNames":["PP001669","PS000475","PS000472","GP0005","GP0005"],"hidden":false,"renderOrder":0,"useCastShadows":true,"useShadows":true}},"mesh":1,"name":"Fillet1"},{"extensions":{"S8S_v3d_node_data":{"frustumCulling":true,"groupNames":["PP001669","PS000475","PS000472","GP0005","GP0005"],"hidden":false,"renderOrder":0,"useCastShadows":true,"useShadows":true}},"mesh":2,"name":"Convert-Solid1"},{"children":[10],"extensions":{"S8S_v3d_node_data":{"groupNames":["PS000475","PS000472","GP0005","GP0005"],"hidden":false}},"name":"PP001672","rotation":[0.7071068286895752,2.978508973683347e-06,-2.9785096558043733e-06,0.7071067094802856],"scale":[1.0,0.9999999403953552,0.9999999403953552],"translation":[0.0,-0.4330711364746094,-0.0]},{"extensions":{"S8S_v3d_node_data":{"frustumCulling":true,"groupNames":["PP001672","PS000475","PS000472","GP0005","GP0005"],"hidden":false,"renderOrder":0,"useCastShadows":true,"useShadows":true}},"mesh":3,"name":"Chamfer1","rotation":[2.1855726117792074e-08,2.0605739337042905e-13,-2.2737367544323206e-13,1.0],"scale":[1.0,0.9999999403953552,0.9999999403953552]},{"children":[12],"extensions":{"S8S_v3d_node_data":{"groupNames":["PS000472","GP0005","GP0005"],"hidden":false}},"name":"PP001671","rotation":[0.1740402728319168,-0.17404025793075562,-0.6853538751602173,0.6853539347648621],"scale":[0.9999999403953552,1.0,1.0],"translation":[2.560976982116699,0.32453274726867676,-1.8226573467254639]},{"extensions":{"S8S_v3d_node_data":{"frustumCulling":true,"groupNames":["PP001671","PS000472","GP0005","GP0005"],"hidden":false,"renderOrder":0,"useCastShadows":true,"useShadows":true}},"mesh":4,"name":"Structural Member1","rotation":[1.6502253220432902e-22,5.675244718617023e-10,-2.1304014552470107e-08,1.0]},{"children":[14],"extensions":{"S8S_v3d_node_data":{"groupNames":["PS000472","GP0005","GP0005"],"hidden":false}},"name":"PP001668","rotation":[0.6515068411827087,0.27484366297721863,-0.27484381198883057,0.6515064835548401],"scale":[1.0,0.9999999403953552,1.0],"translation":[1.4620094299316406,-1.053420066833496,-0.6947047710418701]},{"extensions":{"S8S_v3d_node_data":{"frustumCulling":true,"groupNames":["PP001668","PS000472","GP0005","GP0005"],"hidden":false,"renderOrder":0,"useCastShadows":true,"useShadows":true}},"mesh":5,"name":"Chamfer1","rotation":[4.6565418188038166e-10,3.469446951953614e-18,7.450580596923828e-09,1.0],"scale":[0.9999999403953552,0.9999999403953552,1.0]},{"children":[16,18],"extensions":{"S8S_v3d_node_data":{"groupNames":["GP0005","GP0005"],"hidden":false}},"name":"PS000473","rotation":[0.7071068286895752,1.1726123116899684e-17,-1.1726125598441521e-17,0.7071067094802856],"scale":[1.0,0.9999999403953552,0.9999999403953552],"translation":[3.217982769012451,3.980431079864502,-11.449193954467773]},{"children":[17],"extensions":{"S8S_v3d_node_data":{"groupNames":["PS000473","GP0005","GP0005"],"hidden":false}},"name":"PP001687","rotation":[2.1855690590655286e-08,6.659229482067194e-25,-8.271807111606408e-25,1.0],"scale":[1.0,0.9999999403953552,0.9999999403953552]},{"extensions":{"S8S_v3d_node_data":{"frustumCulling":true,"groupNames":["PP001687","PS000473","GP0005","GP0005"],"hidden":false,"renderOrder":0,"useCastShadows":true,"useShadows":true}},"mesh":6,"name":"LPattern1","rotation":[-7.105427357601002e-15,-7.395572161941336e-32,-1.6543612251060553e-24,1.0],"scale":[1.0,0.9999999403953552,0.9999999403953552]},{"children":[19,21,23],"extensions":{"S8S_v3d_node_data":{"groupNames":["PS000473","GP0005","GP0005"],"hidden":false}},"name":"PS000470","rotation":[-0.5,-0.5,-0.5000000596046448,0.4999999403953552],"scale":[0.9999999403953552,1.0,0.9999999403953552],"translation":[-12.637794494628906,-9.5367431640625e-07,-0.2362203598022461]},{"children":[20],"extensions":{"S8S_v3d_node_data":{"groupNames":["PS000470","PS000473","GP0005","GP0005"],"hidden":false}},"name":"PP001675","rotation":[0.7071068286895752,-1.5454313384566376e-08,-1.5454308055495858e-08,0.7071067094802856],"scale":[0.9999999403953552,0.9999998807907104,0.9999999403953552],"translation":[0.2362208366394043,-1.4173221588134766,-0.0]},{"extensions":{"S8S_v3d_node_data":{"frustumCulling":true,"groupNames":["PP001675","PS000470","PS000473","GP0005","GP0005"],"hidden":false,"renderOrder":0,"useCastShadows":true,"useShadows":true}},"mesh":7,"name":"Chamfer1","rotation":[2.1855690590655286e-08,-7.764701723193967e-23,3.552713678800501e-15,1.0],"scale":[0.9999999403953552,1.0,0.9999999403953552]},{"children":[22],"extensions":{"S8S_v3d_node_data":{"groupNames":["PS000470","PS000473","GP0005","GP0005"],"hidden":false}},"name":"PP001674","rotation":[-0.5,0.5,-0.5000000596046448,-0.4999999403953552],"scale":[0.9999999403953552,0.9999999403953552,1.0],"translation":[0.8267717361450195,-0.8267707824707031,2.384185791015625e-07]},{"extensions":{"S8S_v3d_node_data":{"frustumCulling":true,"groupNames":["PP001674","PS000470","PS000473","GP0005","GP0005"],"hidden":false,"renderOrder":0,"useCastShadows":true,"useShadows":true}},"mesh":8,"name":"Convert-Solid1","rotation":[2.1855697696082643e-08,3.5527141023169746e-15,-5.011635097917516e-22,1.0],"scale":[0.9999999403953552,0.9999999403953552,1.0]},{"children":[24],"extensions":{"S8S_v3d_node_data":{"groupNames":["PS000470","PS000473","GP0005","GP0005"],"hidden":false}},"name":"K00531","rotation":[-0.6456847786903381,0.288255512714386,0.288255512714386,0.6456846594810486],"scale":[0.9999998807907104,1.0,1.0],"translation":[0.2362205982208252,0.4330711364746094,2.384185791015625e-07]},{"extensions":{"S8S_v3d_node_data":{"frustumCulling":true,"groupNames":["K00531","PS000470","PS000473","GP0005","GP0005"],"hidden":false,"renderOrder":0,"useCastShadows":true,"useShadows":true}},"mesh":9,"name":"Chamfer1"},{"camera":0,"children":[26],"name":"__DEFAULT_CAMERA__","rotation":[0.8923990726470947,-0.36964383721351624,-0.0990457609295845,-0.2391175776720047],"scale":[1.0,0.9999998211860657,1.0],"translation":[-84.92001342773438,74.66522216796875,81.2671127319336]},{"extensions":{"S8S_v3d_node_data":{"light":0}},"name":"__DEFAULT_LIGHT__","rotation":[3.774895063202166e-08,-0.0,-0.0,1.0],"scale":[1.0,1.0,1.0],"translation":[75.66239929199219,113.49359130859375,151.32479858398438]}],"scene":0,"scenes":[{"extensions":{"S8S_v3d_scene_data":{"aaMethod":"AUTO","iblEnvironmentMode":"PMREM","light":1,"pmremMaxTileSize":256,"postprocessing":[],"shadowMap":{"esmDistanceScale":0.30000001192092896,"renderReverseSided":false,"renderSingleSided":true,"type":"PCFPOISSON"},"worldMaterial":3}},"extras":{"animFrameRate":30,"coordSystem":"Z_UP_RIGHT"},"name":"Scene","nodes":[0,25]}]}
