<svg xmlns="http://www.w3.org/2000/svg" viewBox="0 0 598.37 212.32"><defs><style>.cls-1{fill:#fff;stroke:#000;stroke-miterlimit:10;}</style></defs><g id="Layer_2" data-name="Layer 2"><g id="Layer_1-2" data-name="Layer 1"><rect class="cls-1" x="92.88" y="25.55" width="411.65" height="95.47"/><path d="M299.18,212.32c138.37,0,256-88.69,299.19-212.32H0C43.19,123.63,160.82,212.32,299.18,212.32ZM429.81,45.1h36.65c19.32,0,26.09,14.14,26.09,24.31,0,17.23-11.55,25.29-27.89,25.29H451.72v21.52H429.81ZM387.16,96.5h20.72v19.72H387.16ZM319.32,45.1H356c19.33,0,26.1,14.14,26.1,24.31,0,17.23-11.55,25.29-27.9,25.29H341.23v21.52H319.32ZM276.69,96.5H297.4v19.72H276.69ZM203.37,45.1h21.92V98h31.47v18.23H203.37Zm-70.29,3.77a8.41,8.41,0,1,0,14.33-.3,35.14,35.14,0,0,1,16.28,61.35l5.48,14.83-14.09-9.44A35.19,35.19,0,0,1,122.47,113c14.52-1.21,27.68-7.54,32.26-22.82,2-6.8,1.42-12.58-.59-17l.51-.11c2.55-.47,9.31,4.22,10.55,4.3,1.56-.08,2.27-1.61,1.38-2.48-4.51-3.81-15.85-11.74-26.35-11.83l-.39,0c-6.1-.35-12.79,1.85-16.66,3.58-4.11,1.84-5.62,2.85-4.66,5s11.07-4.61,18,1.78c1.73,1.58,5.79,11.51,3.05,20.64-2.78,9.28-11.07,12.4-18,13.3a7.49,7.49,0,0,0,1-2,7.22,7.22,0,0,0-12.9-6.12,35.14,35.14,0,0,1,23.4-50.26Z"/><path d="M361.35,70.2c0-6.47-5-6.87-10.36-6.87h-9.76V77.77h8.46C355.37,77.77,361.35,77.37,361.35,70.2Z"/><path d="M471.84,70.2c0-6.47-5-6.87-10.37-6.87h-9.75V77.77h8.46C465.86,77.77,471.84,77.37,471.84,70.2Z"/></g></g></svg>