<svg xmlns="http://www.w3.org/2000/svg" viewBox="0 0 596.45 209.6">
  <g id="Layer_2" data-name="Layer 2">
    <g id="Layer_1-2" data-name="Layer 1">
      <path d="M360.39,37.48c0-6.47-5-6.87-10.36-6.87h-9.76V45.05h8.46C354.42,45.05,360.39,44.65,360.39,37.48Z" />
      <path d="M470.88,37.48c0-6.47-5-6.87-10.37-6.87h-9.75V45.05h8.46C464.9,45.05,470.88,44.65,470.88,37.48Z" />
      <path d="M298.23,209.6c137.34,0,254.26-87.39,298.22-209.6H0C44,122.21,160.88,209.6,298.23,209.6ZM428.85,12.38H465.5c19.32,0,26.09,14.15,26.09,24.31C491.59,53.92,480,62,463.7,62H450.76V83.5H428.85ZM386.2,63.78h20.72V83.5H386.2Zm-67.84-51.4H355c19.33,0,26.1,14.15,26.1,24.31,0,17.23-11.55,25.29-27.89,25.29h-13V83.5H318.36Zm-42.63,51.4h20.72V83.5H275.73Zm-73.31-51.4h21.91V65.27h31.48V83.5H202.42Zm-70.3,3.77a8.41,8.41,0,1,0,14.33-.3A35.15,35.15,0,0,1,162.74,77.2L168.21,92l-14.09-9.44a35.19,35.19,0,0,1-32.61-2.31c14.52-1.21,27.68-7.54,32.26-22.82,2-6.8,1.43-12.58-.59-17l.51-.11c2.55-.47,9.31,4.22,10.55,4.3,1.56-.08,2.27-1.61,1.38-2.48-4.5-3.81-15.85-11.74-26.35-11.83l-.39,0c-6.1-.35-12.79,1.85-16.66,3.58-4.11,1.84-5.61,2.85-4.66,5s11.08-4.61,18.06,1.78c1.72,1.58,5.78,11.51,3,20.64-2.79,9.28-11.08,12.4-18,13.3a7.49,7.49,0,0,0,1-2,7.22,7.22,0,0,0-12.9-6.12,35.14,35.14,0,0,1,23.4-50.26Z" />
    </g>
  </g>
</svg>