<svg xmlns="http://www.w3.org/2000/svg" viewBox="0 0 3062.13 114"><g id="Layer_2" data-name="Layer 2"><g id="Layer_1-2" data-name="Layer 1"><g id="Layer_2-2" data-name="Layer 2"><g id="Layer_1-2-2" data-name="Layer 1-2"><path d="M327,39.57a13.6,13.6,0,0,0-6-1.2h-7V58.56h7a13.35,13.35,0,0,0,6-1.23,9.06,9.06,0,0,0,3.82-3.54,10.61,10.61,0,0,0,1.34-5.4A10.36,10.36,0,0,0,330.87,43,8.87,8.87,0,0,0,327,39.57Z"/><path d="M232.93,39.57a13.63,13.63,0,0,0-6-1.2h-7V58.56h7a13.35,13.35,0,0,0,6-1.23,9.06,9.06,0,0,0,3.82-3.54,10.61,10.61,0,0,0,1.34-5.4A10.28,10.28,0,0,0,236.76,43,8.83,8.83,0,0,0,232.93,39.57Z"/><path d="M0,0V114H365V0ZM82.1,97,68.4,87.88a34.1,34.1,0,0,1-31.69-2.23c14-1.18,26.89-7.32,31.35-22.17a23.34,23.34,0,0,0-.57-16.56l.49-.11C70.47,46.35,77,51,78.24,51c1.52-.08,2.21-1.56,1.34-2.39C75.21,44.87,64.18,37.17,54,37.08h-.38a37.78,37.78,0,0,0-16.17,3.55c-4,1.7-5.47,2.7-4.54,4.73s10.77-4.57,17.56,1.73c1.65,1.54,5.7,11,3,20S42.66,79.15,35.89,80a7,7,0,0,0-11.62-7.94,34.17,34.17,0,0,1,15-45.95A34.77,34.77,0,0,1,47,23.28,8.17,8.17,0,1,0,61,23,34.13,34.13,0,0,1,76.78,82.59Zm78.48-1.21H111.1V22.52H131V79.73h29.6Zm27.59-3.85a10.74,10.74,0,0,1-3.67,3.61,9.47,9.47,0,0,1-4.89,1.34,9.76,9.76,0,0,1-7.1-2.91,9.49,9.49,0,0,1-2.92-7.1,9.26,9.26,0,0,1,2.92-7,10,10,0,0,1,14.05,0,9.45,9.45,0,0,1,3.06,7A9.72,9.72,0,0,1,188.17,91.94ZM255.38,62a23.23,23.23,0,0,1-9.76,8.87A32.68,32.68,0,0,1,231,74H220V95.79H200.06V22.52h31.6a30.11,30.11,0,0,1,14.27,3.27,23.35,23.35,0,0,1,9.51,9,26.63,26.63,0,0,1,3.4,13.63A25.76,25.76,0,0,1,255.38,62Zm26.85,29.91a10.92,10.92,0,0,1-3.67,3.61,9.42,9.42,0,0,1-4.85,1.34A9.69,9.69,0,0,1,266.62,94a9.49,9.49,0,0,1-2.92-7.1,9.26,9.26,0,0,1,2.92-7,10,10,0,0,1,14,0,9.44,9.44,0,0,1,3.05,7,9.55,9.55,0,0,1-1.44,5ZM349.46,62a23.23,23.23,0,0,1-9.76,8.87A32.74,32.74,0,0,1,325.06,74H314V95.79H294.16V22.52h31.61A30.16,30.16,0,0,1,340,25.79a23.35,23.35,0,0,1,9.51,9A26.68,26.68,0,0,1,353,48.42,25.78,25.78,0,0,1,349.46,62Z"/></g></g><rect x="362.13" width="2700" height="114"/></g></g></svg>