<svg xmlns="http://www.w3.org/2000/svg" viewBox="0 0 43.39 47.02"><defs><style>
<!-- .cls-1{fill:#6d8392;} -->
</style></defs><g id="Layer_2" data-name="Layer 2"><g id="Layer_1-2" data-name="Layer 1"><path class="cls-1" d="M43.39,21.32A21.7,21.7,0,0,0,25.68,0a5.19,5.19,0,1,1-8.85.18,21.7,21.7,0,0,0-14.45,31,4.46,4.46,0,0,1,8,3.78,4.35,4.35,0,0,1-.62,1.26c4.3-.56,9.42-2.48,11.14-8.21S20.05,16.28,19,15.3c-4.31-4-10.56.19-11.15-1.1s.34-1.92,2.88-3A24,24,0,0,1,21,8.94l.24,0c6.49.06,13.49,4.95,16.27,7.31.55.53.11,1.47-.85,1.52-.77,0-4.94-2.94-6.52-2.65l-.31.07a14.84,14.84,0,0,1,.36,10.52c-2.83,9.43-11,13.33-19.91,14.08a21.67,21.67,0,0,0,20.13,1.42L39.11,47l-3.38-9.15A21.68,21.68,0,0,0,43.39,21.32Z"/></g></g></svg>