<svg xmlns="http://www.w3.org/2000/svg" viewBox="0 0 241.85 74.37"><g id="Layer_2" data-name="Layer 2"><g id="Layer_1-2" data-name="Layer 1"><path d="M4.72,87V13.73H24.6V70.94H54.2V87Z" transform="translate(-4.72 -13.73)"/><path d="M73.23,88.1a9.73,9.73,0,0,1-7.1-2.91,9.5,9.5,0,0,1-2.92-7.1,9.29,9.29,0,0,1,2.92-7,10,10,0,0,1,14.05,0,9.46,9.46,0,0,1,3.06,7,9.72,9.72,0,0,1-1.45,5.06,10.65,10.65,0,0,1-3.67,3.61A9.42,9.42,0,0,1,73.23,88.1Z" transform="translate(-4.72 -13.73)"/><path d="M93.68,87V13.73h31.6A30.16,30.16,0,0,1,139.55,17a23.29,23.29,0,0,1,9.51,9,26.54,26.54,0,0,1,3.4,13.63A25.75,25.75,0,0,1,149,53.24a23.18,23.18,0,0,1-9.76,8.87,32.61,32.61,0,0,1-14.64,3.11H105.69V49.77h14.87a13.36,13.36,0,0,0,6-1.23A9,9,0,0,0,130.38,45a10.55,10.55,0,0,0,1.34-5.4,10.34,10.34,0,0,0-1.34-5.39,8.83,8.83,0,0,0-3.83-3.43,13.64,13.64,0,0,0-6-1.2h-7V87Z" transform="translate(-4.72 -13.73)"/><path d="M167.33,88.1a9.72,9.72,0,0,1-7.09-2.91,9.5,9.5,0,0,1-2.92-7.1,9.29,9.29,0,0,1,2.92-7,10,10,0,0,1,14,0,9.42,9.42,0,0,1,3.05,7,9.62,9.62,0,0,1-1.44,5.06,10.83,10.83,0,0,1-3.67,3.61A9.43,9.43,0,0,1,167.33,88.1Z" transform="translate(-4.72 -13.73)"/><path d="M187.78,87V13.73h31.61A30.16,30.16,0,0,1,233.66,17a23.41,23.41,0,0,1,9.51,9,26.64,26.64,0,0,1,3.4,13.63,25.84,25.84,0,0,1-3.49,13.62,23.18,23.18,0,0,1-9.76,8.87,32.64,32.64,0,0,1-14.64,3.11H199.8V49.77h14.87a13.39,13.39,0,0,0,6-1.23A9,9,0,0,0,224.49,45a10.55,10.55,0,0,0,1.34-5.4,10.34,10.34,0,0,0-1.34-5.39,8.88,8.88,0,0,0-3.83-3.43,13.67,13.67,0,0,0-6-1.2h-7V87Z" transform="translate(-4.72 -13.73)"/></g></g></svg>